<?xml version="1.0" encoding="UTF-8" standalone="no"?>
<!DOCTYPE svg PUBLIC "-//W3C//DTD SVG 1.1//EN" "http://www.w3.org/Graphics/SVG/1.1/DTD/svg11.dtd">
<svg width="100%" height="100%" viewBox="0 0 600 400" version="1.1" xmlns="http://www.w3.org/2000/svg" xmlns:xlink="http://www.w3.org/1999/xlink" xml:space="preserve" xmlns:serif="http://www.serif.com/" style="fill-rule:evenodd;clip-rule:evenodd;stroke-linecap:round;stroke-linejoin:round;stroke-miterlimit:1.5;">
    <g transform="matrix(1,0,0,1,-340,-200)">
        <path d="M375.858,297.568C375.858,297.568 375.402,329.831 422.834,333.459C442.885,334.993 767.415,340.159 848.146,332.753C872.544,330.514 884.978,324.448 907.22,289.019C907.22,289.019 988.56,414.896 855.251,466.246L427.234,464.242C427.234,464.242 292.892,437.579 375.858,297.568Z" style="fill:none;stroke:black;stroke-width:11px;"/>
    </g>
    <g transform="matrix(1,0,0,1,-340,-200)">
        <path d="M349.767,391.882L929.849,389.872" style="fill:none;stroke:black;stroke-width:11px;"/>
    </g>
    <g transform="matrix(1,0,0,1,-340,-200)">
        <path d="M442.428,242.46L766.297,242.881" style="fill:none;stroke:black;stroke-width:11px;"/>
    </g>
    <g transform="matrix(-1,-1.22465e-16,1.22465e-16,-1,946.06,600.722)">
        <path d="M442.428,242.46L766.297,242.881" style="fill:none;stroke:black;stroke-width:11px;"/>
    </g>
    <g transform="matrix(-0.785713,9.6222e-17,-9.6222e-17,-0.785713,773.655,547.363)">
        <path d="M742.675,294.858L733.955,291.776L733.775,291.632L733.52,291.422L733.218,291.169L732.878,290.879L732.67,290.698L732.462,290.516L732.241,290.32L732.008,290.112L731.766,289.893L731.513,289.661L731.248,289.416L730.974,289.159L730.69,288.89L730.397,288.609L730.095,288.315L729.783,288.009L729.464,287.691L729.137,287.361L728.802,287.019L728.461,286.665L728.112,286.298L727.756,285.919L727.394,285.528L727.026,285.125L726.654,284.71L726.276,284.283L725.901,283.854L725.7,283.619L725.506,283.393L725.311,283.162L725.115,282.929L724.917,282.692L724.719,282.453L724.521,282.211L724.321,281.966L724.121,281.717L723.921,281.466L723.719,281.212L723.517,280.954L723.314,280.693L723.112,280.43L722.908,280.163L722.703,279.893L722.5,279.622L722.295,279.346L722.09,279.067L721.885,278.785L721.68,278.5L721.475,278.213L721.27,277.922L721.064,277.628L720.859,277.331L720.654,277.031L720.449,276.728L720.244,276.422L720.039,276.112L719.835,275.8L719.631,275.485L719.428,275.167L719.225,274.846L719.022,274.521L718.82,274.193L718.619,273.862L718.418,273.528L718.218,273.192L718.019,272.852L717.82,272.509L717.623,272.163L717.426,271.814L717.23,271.462L717.036,271.107L716.843,270.748L716.65,270.386L716.459,270.021L716.269,269.654L716.081,269.284L715.894,268.91L715.708,268.533L715.524,268.153L715.341,267.769L715.16,267.383L714.981,266.994L714.803,266.602L714.628,266.206L714.454,265.807L714.282,265.406L714.112,265.001L713.944,264.593L713.778,264.182L713.614,263.769L713.453,263.351L713.294,262.931L713.137,262.508L712.983,262.082L712.831,261.652L712.681,261.22L712.535,260.785L712.391,260.346L712.25,259.905L712.112,259.461L711.976,259.014L711.843,258.563L711.714,258.109L711.587,257.653L711.464,257.194L711.344,256.732L711.227,256.266L711.114,255.799L711.004,255.328L710.898,254.855L710.795,254.378L710.695,253.898L710.6,253.416L710.508,252.931L710.42,252.443L710.336,251.953L710.256,251.46L710.18,250.964L710.108,250.465L710.04,249.965L709.977,249.461L709.918,248.954L709.863,248.446L709.812,247.934L709.766,247.421L709.725,246.905L709.689,246.386L709.657,245.865L709.629,245.341L709.607,244.816L709.589,244.288L709.577,243.758L709.57,243.242L709.568,242.958L709.567,242.691L709.568,242.424L709.57,242.154L709.573,241.885L709.577,241.616L709.583,241.346L709.59,241.075L709.599,240.805L709.609,240.533L709.62,240.261L709.632,239.989L709.646,239.715L709.662,239.442L709.678,239.168L709.696,238.895L709.715,238.62L709.736,238.343L709.758,238.068L709.782,237.793L709.807,237.516L709.833,237.239L709.861,236.962L709.89,236.685L709.92,236.406L709.952,236.127L709.986,235.849L710.02,235.57L710.057,235.29L710.094,235.01L710.134,234.729L710.174,234.449L710.216,234.168L710.26,233.886L710.305,233.605L710.352,233.323L710.4,233.04L710.449,232.757L710.5,232.475L710.553,232.191L710.607,231.908L710.662,231.624L710.719,231.34L710.778,231.055L710.838,230.769L710.9,230.485L710.963,230.2L711.027,229.914L711.094,229.628L711.161,229.342L711.231,229.056L711.302,228.769L711.374,228.482L711.448,228.195L711.524,227.908L711.601,227.621L711.679,227.333L711.76,227.045L711.841,226.757L711.925,226.468L712.01,226.181L712.096,225.892L712.185,225.602L712.274,225.314L712.366,225.024L712.458,224.735L712.553,224.446L712.649,224.156L712.747,223.866L712.846,223.576L712.947,223.286L713.05,222.996L713.154,222.706L713.26,222.415L713.367,222.125L713.476,221.834L713.587,221.544L713.699,221.252L713.813,220.961L713.929,220.671L714.046,220.379L714.165,220.088L714.286,219.796L714.408,219.504L714.531,219.213L714.657,218.921L714.784,218.63L714.912,218.338L715.043,218.046L715.175,217.754L715.309,217.462L715.444,217.17L715.581,216.879L715.72,216.586L715.86,216.294L716.002,216.002L716.146,215.71L716.291,215.418L716.438,215.125L716.587,214.833L716.738,214.54L716.889,214.248L717.043,213.956L717.199,213.663L717.356,213.371L717.514,213.079L717.675,212.785L717.837,212.493L718.001,212.201L718.167,211.908L718.334,211.616L718.503,211.324L718.674,211.031L718.846,210.738L719.02,210.447L719.196,210.154L719.374,209.861L719.553,209.569L719.734,209.276L719.916,208.984L720.101,208.692L720.287,208.399L720.475,208.107L720.665,207.814L720.856,207.523L721.049,207.23L721.244,206.938L721.441,206.645L721.638,206.353L721.838,206.062L722.04,205.768L722.244,205.476L722.449,205.184L722.656,204.893L722.864,204.601L723.076,204.308L723.287,204.016L723.501,203.725L723.717,203.432L723.934,203.141L724.154,202.849L724.375,202.556L724.598,202.265L724.822,201.973L725.049,201.682L725.277,201.39L725.507,201.098L725.739,200.807L725.972,200.515L726.208,200.224L726.445,199.932L726.684,199.64L726.925,199.349L727.167,199.058L727.412,198.766L727.658,198.475L727.906,198.184L728.156,197.892L728.407,197.601L728.661,197.31L728.916,197.019L729.174,196.727L729.433,196.436L729.693,196.146L729.956,195.855L730.22,195.564L730.486,195.273L730.738,195L741.104,190.49L827.569,190.939L834.974,193.103L835.053,193.153L835.257,193.284L835.542,193.47L835.878,193.695L836.093,193.84L836.312,193.99L836.543,194.151L836.791,194.324L837.055,194.51L837.332,194.708L837.621,194.918L837.925,195.14L838.242,195.375L838.571,195.622L838.913,195.881L839.265,196.152L839.629,196.436L840.004,196.731L840.389,197.039L840.785,197.359L841.189,197.691L841.603,198.035L842.025,198.392L842.455,198.76L842.894,199.141L843.33,199.525L843.565,199.735L843.792,199.94L844.021,200.147L844.251,200.357L844.482,200.57L844.716,200.787L844.95,201.006L845.186,201.229L845.423,201.455L845.662,201.684L845.902,201.916L846.143,202.151L846.385,202.39L846.627,202.63L846.871,202.875L847.116,203.123L847.362,203.374L847.607,203.627L847.855,203.885L848.103,204.145L848.351,204.408L848.6,204.675L848.849,204.945L849.099,205.217L849.349,205.494L849.6,205.773L849.851,206.055L850.102,206.341L850.353,206.63L850.604,206.923L850.856,207.218L851.107,207.517L851.358,207.819L851.609,208.125L851.86,208.433L852.11,208.745L852.36,209.06L852.61,209.379L852.859,209.701L853.108,210.026L853.357,210.355L853.604,210.687L853.851,211.023L854.096,211.361L854.341,211.703L854.586,212.049L854.829,212.398L855.071,212.751L855.312,213.107L855.552,213.466L855.79,213.829L856.027,214.196L856.263,214.566L856.497,214.939L856.729,215.316L856.96,215.697L857.19,216.081L857.417,216.469L857.642,216.86L857.866,217.254L858.088,217.653L858.307,218.055L858.524,218.461L858.739,218.87L858.951,219.283L859.161,219.699L859.369,220.12L859.574,220.544L859.776,220.971L859.975,221.402L860.172,221.837L860.365,222.275L860.556,222.717L860.743,223.163L860.927,223.612L861.107,224.065L861.285,224.522L861.458,224.982L861.628,225.446L861.794,225.914L861.957,226.385L862.115,226.86L862.27,227.338L862.42,227.82L862.566,228.305L862.708,228.794L862.84,229.27L862.912,229.534L862.977,229.782L863.042,230.032L863.106,230.282L863.168,230.533L863.229,230.785L863.289,231.038L863.348,231.291L863.405,231.546L863.461,231.8L863.516,232.057L863.57,232.314L863.622,232.571L863.673,232.83L863.723,233.089L863.771,233.349L863.818,233.61L863.864,233.872L863.908,234.134L863.952,234.398L863.993,234.662L864.033,234.926L864.072,235.192L864.11,235.459L864.146,235.726L864.18,235.993L864.213,236.262L864.245,236.531L864.275,236.801L864.303,237.072L864.33,237.343L864.356,237.616L864.38,237.889L864.403,238.162L864.424,238.436L864.443,238.711L864.461,238.987L864.477,239.263L864.492,239.54L864.505,239.817L864.516,240.095L864.526,240.374L864.534,240.653L864.541,240.933L864.546,241.214L864.549,241.495L864.551,241.776L864.551,242.058L864.549,242.341L864.545,242.624L864.54,242.908L864.533,243.193L864.524,243.478L864.514,243.763L864.502,244.049L864.488,244.335L864.472,244.622L864.455,244.909L864.436,245.197L864.415,245.485L864.392,245.774L864.367,246.063L864.341,246.352L864.313,246.641L864.283,246.932L864.251,247.223L864.217,247.514L864.181,247.805L864.144,248.096L864.105,248.388L864.064,248.681L864.021,248.973L863.976,249.266L863.929,249.56L863.881,249.853L863.83,250.147L863.778,250.441L863.724,250.736L863.668,251.03L863.61,251.325L863.55,251.62L863.488,251.915L863.424,252.211L863.358,252.506L863.291,252.802L863.221,253.098L863.15,253.395L863.077,253.691L863.001,253.987L862.924,254.283L862.845,254.58L862.764,254.878L862.681,255.174L862.596,255.472L862.509,255.769L862.42,256.066L862.329,256.364L862.236,256.661L862.142,256.958L862.045,257.256L861.946,257.554L861.846,257.851L861.743,258.15L861.639,258.447L861.532,258.745L861.424,259.042L861.313,259.341L861.201,259.638L861.087,259.936L860.97,260.234L860.852,260.531L860.732,260.83L860.61,261.127L860.485,261.425L860.359,261.723L860.231,262.02L860.101,262.317L859.969,262.615L859.835,262.913L859.699,263.21L859.561,263.507L859.421,263.804L859.279,264.102L859.135,264.399L858.989,264.697L858.842,264.992L858.692,265.289L858.54,265.587L858.386,265.883L858.231,266.18L858.073,266.476L857.913,266.772L857.752,267.069L857.588,267.365L857.422,267.661L857.255,267.956L857.085,268.253L856.913,268.548L856.74,268.844L856.565,269.139L856.387,269.434L856.207,269.73L856.026,270.025L855.842,270.319L855.657,270.614L855.469,270.909L855.28,271.203L855.089,271.497L854.895,271.791L854.699,272.086L854.502,272.38L854.303,272.674L854.102,272.967L853.898,273.261L853.693,273.554L853.485,273.847L853.276,274.141L853.064,274.434L852.851,274.727L852.635,275.019L852.418,275.312L852.198,275.605L851.977,275.897L851.753,276.189L851.528,276.481L851.3,276.773L851.071,277.065L850.839,277.357L850.605,277.648L850.37,277.939L850.132,278.231L849.892,278.522L849.65,278.814L849.406,279.104L849.16,279.395L848.912,279.686L848.662,279.976L848.41,280.267L848.156,280.557L847.9,280.847L847.641,281.137L847.381,281.428L847.118,281.717L846.854,282.007L846.587,282.297L846.318,282.587L846.047,282.876L845.775,283.165L845.5,283.455L845.223,283.744L844.943,284.033L844.662,284.322L844.379,284.611L844.093,284.9L843.805,285.189L843.515,285.477L843.223,285.767L842.929,286.055L842.633,286.343L842.334,286.631L842.034,286.919L841.731,287.208L841.425,287.497L841.118,287.784L840.81,288.072L840.498,288.36L840.184,288.648L839.868,288.936L839.55,289.224L839.229,289.512L838.907,289.799L838.582,290.087L838.255,290.374L837.926,290.662L837.595,290.949L837.261,291.237L836.926,291.524L836.605,291.796L827.495,295.128L742.675,294.858ZM827.842,280.871L828.142,280.614L828.439,280.358L828.735,280.102L829.028,279.846L829.318,279.59L829.606,279.335L829.892,279.08L830.176,278.825L830.457,278.571L830.736,278.317L831.013,278.063L831.287,277.809L831.559,277.556L831.829,277.303L832.097,277.05L832.362,276.797L832.625,276.545L832.886,276.293L833.145,276.041L833.401,275.79L833.655,275.539L833.907,275.288L834.157,275.037L834.404,274.787L834.65,274.537L834.893,274.287L835.134,274.038L835.372,273.789L835.609,273.54L835.843,273.291L836.075,273.043L836.306,272.795L836.534,272.547L836.759,272.3L836.983,272.053L837.205,271.806L837.424,271.56L837.641,271.313L837.857,271.068L838.07,270.822L838.281,270.577L838.49,270.332L838.697,270.087L838.902,269.843L839.104,269.599L839.305,269.355L839.504,269.111L839.7,268.868L839.895,268.626L840.088,268.383L840.278,268.141L840.467,267.899L840.653,267.657L840.838,267.416L841.02,267.175L841.201,266.935L841.38,266.694L841.556,266.454L841.731,266.215L841.904,265.975L842.074,265.736L842.243,265.497L842.41,265.259L842.575,265.021L842.738,264.783L842.899,264.546L843.058,264.309L843.216,264.072L843.371,263.836L843.525,263.6L843.676,263.364L843.826,263.128L843.974,262.893L844.12,262.658L844.264,262.424L844.407,262.19L844.547,261.956L844.686,261.723L844.823,261.49L844.958,261.257L845.091,261.024L845.223,260.792L845.352,260.561L845.48,260.329L845.606,260.098L845.731,259.867L845.853,259.637L845.974,259.407L846.093,259.177L846.21,258.948L846.326,258.719L846.44,258.491L846.552,258.262L846.662,258.034L846.771,257.807L846.878,257.58L846.983,257.353L847.087,257.126L847.189,256.9L847.289,256.674L847.387,256.449L847.484,256.224L847.58,255.999L847.673,255.775L847.765,255.551L847.855,255.327L847.944,255.104L848.031,254.881L848.116,254.658L848.2,254.436L848.283,254.214L848.363,253.993L848.442,253.772L848.52,253.551L848.596,253.331L848.67,253.111L848.743,252.891L848.814,252.672L848.884,252.453L848.952,252.235L849.018,252.017L849.083,251.799L849.147,251.582L849.209,251.365L849.269,251.148L849.329,250.932L849.386,250.716L849.442,250.501L849.497,250.286L849.55,250.071L849.602,249.857L849.652,249.643L849.701,249.43L849.748,249.217L849.794,249.004L849.838,248.792L849.881,248.58L849.923,248.368L849.963,248.157L850.002,247.946L850.039,247.736L850.075,247.526L850.11,247.316L850.143,247.107L850.175,246.898L850.206,246.69L850.235,246.482L850.263,246.275L850.29,246.067L850.315,245.861L850.339,245.654L850.361,245.448L850.383,245.243L850.402,245.038L850.421,244.833L850.439,244.629L850.455,244.425L850.469,244.221L850.483,244.018L850.495,243.816L850.506,243.613L850.516,243.412L850.525,243.21L850.532,243.009L850.538,242.809L850.543,242.608L850.547,242.409L850.549,242.209L850.551,242.01L850.551,241.812L850.55,241.614L850.547,241.416L850.544,241.219L850.539,241.022L850.533,240.826L850.527,240.63L850.518,240.435L850.509,240.239L850.499,240.045L850.488,239.851L850.475,239.657L850.461,239.464L850.447,239.271L850.431,239.078L850.414,238.886L850.396,238.695L850.377,238.503L850.357,238.313L850.335,238.122L850.313,237.932L850.29,237.743L850.265,237.554L850.24,237.366L850.214,237.178L850.186,236.99L850.158,236.803L850.128,236.616L850.098,236.43L850.066,236.244L850.034,236.059L850.001,235.874L849.966,235.689L849.931,235.505L849.895,235.322L849.858,235.138L849.819,234.956L849.78,234.774L849.74,234.592L849.699,234.411L849.658,234.23L849.615,234.049L849.571,233.869L849.527,233.69L849.481,233.511L849.435,233.332L849.388,233.154L849.34,232.977L849.241,232.623L849.139,232.271L849.034,231.921L848.925,231.573L848.813,231.227L848.699,230.882L848.581,230.54L848.459,230.199L848.335,229.861L848.208,229.524L848.079,229.19L847.946,228.857L847.81,228.526L847.672,228.197L847.532,227.87L847.388,227.545L847.242,227.223L847.094,226.902L846.943,226.583L846.79,226.266L846.634,225.951L846.477,225.638L846.317,225.327L846.155,225.019L845.99,224.712L845.824,224.407L845.656,224.104L845.486,223.804L845.314,223.505L845.14,223.209L844.964,222.915L844.787,222.622L844.608,222.332L844.427,222.044L844.245,221.758L844.062,221.475L843.877,221.193L843.69,220.914L843.503,220.636L843.314,220.361L843.124,220.088L842.932,219.817L842.74,219.549L842.547,219.282L842.352,219.018L842.157,218.756L841.961,218.496L841.764,218.238L841.566,217.983L841.367,217.73L841.168,217.479L840.969,217.23L840.768,216.984L840.568,216.739L840.367,216.497L840.165,216.258L839.963,216.02L839.761,215.785L839.559,215.553L839.356,215.322L839.154,215.094L838.951,214.868L838.749,214.645L838.546,214.423L838.344,214.205L838.142,213.988L837.94,213.774L837.738,213.562L837.537,213.353L837.336,213.146L837.136,212.941L836.936,212.739L836.737,212.539L836.538,212.342L836.34,212.147L836.143,211.954L835.946,211.764L835.751,211.576L835.556,211.391L835.362,211.208L835.17,211.028L834.978,210.85L834.788,210.674L834.598,210.502L834.41,210.331L834.224,210.163L834.038,209.998L833.672,209.674L833.311,209.361L832.957,209.058L832.61,208.765L832.271,208.483L831.939,208.211L831.616,207.949L831.301,207.698L830.996,207.457L830.7,207.227L830.415,207.007L830.14,206.799L829.876,206.601L829.623,206.413L829.382,206.237L829.154,206.072L828.938,205.917L828.735,205.774L828.546,205.642L828.372,205.521L828.211,205.411L828.066,205.313L827.822,205.15L827.644,205.033L827.534,204.963L827.496,204.939L741.031,204.49L740.796,204.745L740.563,204.999L740.332,205.254L740.102,205.508L739.875,205.761L739.649,206.015L739.426,206.268L739.204,206.521L738.984,206.774L738.765,207.027L738.549,207.279L738.334,207.531L738.122,207.783L737.911,208.035L737.701,208.286L737.494,208.537L737.288,208.788L737.085,209.038L736.883,209.288L736.682,209.538L736.484,209.788L736.287,210.037L736.092,210.287L735.899,210.536L735.708,210.784L735.518,211.033L735.33,211.281L735.144,211.529L734.959,211.776L734.776,212.023L734.595,212.27L734.416,212.517L734.238,212.764L734.062,213.01L733.888,213.256L733.716,213.501L733.545,213.747L733.375,213.992L733.208,214.237L733.042,214.481L732.878,214.726L732.715,214.969L732.554,215.213L732.395,215.457L732.237,215.7L732.081,215.942L731.927,216.185L731.774,216.427L731.623,216.669L731.473,216.911L731.326,217.152L731.179,217.393L731.034,217.634L730.891,217.874L730.75,218.115L730.61,218.354L730.471,218.594L730.334,218.833L730.199,219.072L730.065,219.311L729.933,219.549L729.802,219.787L729.673,220.025L729.546,220.263L729.42,220.5L729.295,220.736L729.172,220.973L729.051,221.209L728.931,221.445L728.812,221.681L728.695,221.916L728.579,222.151L728.465,222.386L728.353,222.62L728.242,222.854L728.132,223.088L728.024,223.321L727.917,223.554L727.812,223.787L727.708,224.019L727.606,224.251L727.505,224.483L727.405,224.715L727.307,224.946L727.21,225.176L727.115,225.407L727.021,225.637L726.929,225.867L726.838,226.096L726.748,226.325L726.659,226.554L726.573,226.783L726.487,227.011L726.403,227.239L726.32,227.466L726.238,227.693L726.158,227.92L726.079,228.146L726.002,228.373L725.926,228.598L725.851,228.824L725.777,229.049L725.705,229.274L725.634,229.498L725.565,229.722L725.497,229.946L725.43,230.169L725.364,230.392L725.299,230.615L725.236,230.837L725.174,231.059L725.114,231.28L725.055,231.502L724.996,231.723L724.94,231.943L724.884,232.163L724.83,232.383L724.777,232.602L724.725,232.822L724.674,233.04L724.625,233.259L724.576,233.477L724.529,233.694L724.483,233.911L724.439,234.128L724.395,234.345L724.353,234.561L724.312,234.777L724.272,234.992L724.233,235.207L724.196,235.422L724.159,235.636L724.124,235.85L724.09,236.064L724.057,236.277L724.025,236.49L723.994,236.702L723.964,236.914L723.936,237.126L723.908,237.337L723.882,237.548L723.857,237.758L723.833,237.969L723.81,238.178L723.788,238.388L723.767,238.597L723.747,238.805L723.728,239.013L723.711,239.221L723.694,239.429L723.679,239.636L723.664,239.842L723.651,240.048L723.638,240.254L723.627,240.46L723.616,240.665L723.607,240.869L723.598,241.073L723.591,241.277L723.585,241.481L723.579,241.684L723.575,241.886L723.571,242.089L723.569,242.29L723.568,242.492L723.567,242.693L723.568,242.893L723.569,243.094L723.575,243.493L723.584,243.89L723.597,244.286L723.614,244.68L723.634,245.073L723.658,245.463L723.686,245.853L723.717,246.24L723.751,246.626L723.789,247.01L723.83,247.392L723.875,247.772L723.922,248.151L723.973,248.528L724.028,248.904L724.085,249.277L724.145,249.649L724.209,250.019L724.275,250.387L724.344,250.754L724.417,251.118L724.492,251.481L724.57,251.842L724.65,252.201L724.734,252.559L724.82,252.914L724.909,253.268L725,253.619L725.094,253.969L725.191,254.317L725.289,254.664L725.391,255.008L725.494,255.35L725.601,255.691L725.709,256.029L725.819,256.366L725.932,256.701L726.047,257.034L726.164,257.364L726.283,257.693L726.404,258.02L726.527,258.345L726.652,258.668L726.779,258.989L726.908,259.308L727.039,259.625L727.171,259.94L727.305,260.253L727.44,260.564L727.578,260.873L727.717,261.18L727.857,261.485L727.999,261.788L728.142,262.088L728.287,262.387L728.433,262.684L728.58,262.978L728.729,263.27L728.879,263.561L729.03,263.849L729.182,264.135L729.336,264.419L729.49,264.701L729.645,264.98L729.801,265.258L729.959,265.533L730.117,265.807L730.276,266.078L730.435,266.346L730.596,266.613L730.757,266.877L730.918,267.14L731.081,267.4L731.244,267.658L731.407,267.913L731.571,268.166L731.735,268.418L731.9,268.666L732.065,268.913L732.23,269.157L732.395,269.399L732.561,269.639L732.727,269.876L732.893,270.112L733.059,270.344L733.225,270.575L733.391,270.803L733.557,271.029L733.723,271.253L733.889,271.474L734.054,271.692L734.219,271.909L734.384,272.123L734.549,272.335L734.713,272.544L734.877,272.751L735.041,272.955L735.203,273.158L735.366,273.357L735.528,273.554L735.689,273.749L735.849,273.942L736.009,274.132L736.168,274.319L736.326,274.504L736.483,274.686L736.794,275.044L737.102,275.392L737.405,275.729L737.704,276.056L737.997,276.374L738.285,276.68L738.568,276.977L738.844,277.263L739.114,277.539L739.377,277.804L739.632,278.059L739.88,278.303L740.121,278.536L740.353,278.759L740.576,278.971L740.79,279.172L740.995,279.361L741.191,279.54L741.376,279.708L741.551,279.865L741.715,280.01L741.869,280.144L742.01,280.267L742.258,280.479L742.455,280.644L742.6,280.763L742.719,280.858L827.54,281.128L827.842,280.871Z"/>
    </g>
    <g transform="matrix(0.785713,0,0,0.785713,-162.626,-148.806)">
        <path d="M827.569,190.939L834.966,193.098L835.05,193.151L835.258,193.285L835.542,193.47L835.879,193.696L836.094,193.841L836.311,193.99L836.544,194.151L836.791,194.324L837.054,194.51L837.331,194.708L837.621,194.918L837.925,195.141L838.242,195.375L838.571,195.622L838.912,195.881L839.266,196.153L839.63,196.436L840.004,196.731L840.389,197.039L840.785,197.359L841.189,197.691L841.603,198.035L842.025,198.392L842.456,198.76L842.894,199.141L843.329,199.525L843.564,199.735L843.792,199.939L844.021,200.147L844.251,200.357L844.483,200.571L844.716,200.787L844.95,201.006L845.187,201.23L845.424,201.455L845.662,201.684L845.902,201.916L846.143,202.151L846.385,202.389L846.627,202.631L846.871,202.875L847.116,203.123L847.361,203.374L847.608,203.627L847.855,203.885L848.103,204.145L848.351,204.408L848.6,204.675L848.849,204.945L849.099,205.218L849.349,205.493L849.6,205.773L849.851,206.056L850.102,206.342L850.353,206.631L850.604,206.923L850.855,207.218L851.107,207.517L851.358,207.819L851.609,208.125L851.86,208.433L852.11,208.745L852.361,209.061L852.61,209.379L852.86,209.701L853.108,210.026L853.356,210.355L853.604,210.687L853.85,211.022L854.096,211.361L854.342,211.704L854.585,212.049L854.828,212.398L855.071,212.751L855.312,213.107L855.551,213.466L855.79,213.829L856.027,214.196L856.263,214.565L856.497,214.939L856.729,215.316L856.961,215.697L857.189,216.081L857.417,216.468L857.643,216.86L857.866,217.255L858.087,217.652L858.307,218.055L858.524,218.461L858.739,218.87L858.951,219.283L859.161,219.699L859.369,220.12L859.574,220.544L859.776,220.971L859.975,221.401L860.172,221.837L860.365,222.275L860.555,222.717L860.743,223.163L860.927,223.613L861.107,224.065L861.284,224.522L861.458,224.983L861.628,225.447L861.794,225.914L861.957,226.385L862.115,226.859L862.269,227.338L862.42,227.82L862.566,228.306L862.708,228.794L862.84,229.269L862.912,229.535L862.978,229.783L863.042,230.032L863.106,230.283L863.168,230.534L863.229,230.784L863.289,231.038L863.347,231.29L863.405,231.545L863.461,231.801L863.516,232.057L863.57,232.314L863.622,232.571L863.673,232.829L863.723,233.089L863.771,233.35L863.818,233.61L863.864,233.873L863.908,234.134L863.951,234.397L863.993,234.663L864.033,234.926L864.072,235.192L864.11,235.458L864.145,235.725L864.18,235.993L864.213,236.262L864.245,236.532L864.275,236.801L864.303,237.071L864.331,237.344L864.356,237.617L864.38,237.889L864.403,238.16L864.424,238.436L864.443,238.712L864.461,238.986L864.477,239.262L864.492,239.54L864.505,239.818L864.516,240.096L864.526,240.373L864.534,240.651L864.541,240.934L864.546,241.214L864.549,241.495L864.551,241.777L864.551,242.059L864.549,242.34L864.545,242.624L864.54,242.909L864.533,243.191L864.524,243.478L864.514,243.764L864.502,244.048L864.488,244.334L864.472,244.622L864.455,244.91L864.435,245.198L864.415,245.484L864.392,245.773L864.367,246.063L864.341,246.352L864.312,246.643L864.283,246.932L864.251,247.223L864.217,247.513L864.182,247.804L864.144,248.098L864.105,248.39L864.064,248.68L864.021,248.973L863.976,249.266L863.929,249.559L863.881,249.854L863.83,250.148L863.778,250.442L863.724,250.736L863.668,251.03L863.61,251.325L863.55,251.62L863.488,251.914L863.424,252.21L863.358,252.506L863.291,252.803L863.221,253.098L863.15,253.395L863.076,253.691L863.001,253.987L862.924,254.284L862.845,254.58L862.764,254.878L862.68,255.175L862.596,255.471L862.509,255.769L862.42,256.067L862.329,256.363L862.236,256.661L862.142,256.958L862.045,257.255L861.946,257.555L861.845,257.853L861.743,258.149L861.639,258.447L861.532,258.745L861.424,259.042L861.313,259.341L861.201,259.638L861.087,259.936L860.97,260.233L860.852,260.532L860.732,260.83L860.61,261.127L860.485,261.425L860.36,261.722L860.231,262.02L860.101,262.318L859.969,262.615L859.835,262.914L859.699,263.211L859.561,263.507L859.421,263.805L859.279,264.102L859.135,264.399L858.989,264.696L858.842,264.993L858.692,265.289L858.54,265.587L858.386,265.883L858.231,266.18L858.073,266.476L857.913,266.773L857.751,267.069L857.588,267.365L857.422,267.66L857.255,267.957L857.085,268.253L856.913,268.548L856.74,268.843L856.564,269.139L856.387,269.434L856.207,269.729L856.026,270.025L855.843,270.319L855.657,270.614L855.469,270.909L855.28,271.203L855.089,271.497L854.895,271.792L854.7,272.086L854.503,272.379L854.303,272.673L854.101,272.967L853.898,273.261L853.693,273.554L853.485,273.847L853.276,274.141L853.064,274.434L852.851,274.727L852.636,275.019L852.418,275.312L852.198,275.604L851.977,275.897L851.753,276.189L851.528,276.481L851.3,276.773L851.07,277.065L850.839,277.357L850.606,277.648L850.369,277.94L850.132,278.231L849.892,278.522L849.65,278.813L849.406,279.104L849.16,279.395L848.912,279.686L848.662,279.976L848.41,280.267L848.156,280.557L847.9,280.848L847.642,281.137L847.381,281.427L847.118,281.717L846.854,282.007L846.587,282.297L846.319,282.586L846.048,282.876L845.775,283.166L845.5,283.455L845.222,283.744L844.944,284.033L844.662,284.322L844.378,284.612L844.092,284.9L843.805,285.189L843.515,285.477L843.223,285.766L842.929,286.055L842.633,286.343L842.334,286.632L842.033,286.92L841.731,287.208L841.426,287.496L841.119,287.784L840.809,288.073L840.497,288.361L840.184,288.648L839.868,288.936L839.55,289.224L839.23,289.512L838.907,289.799L838.583,290.087L838.256,290.374L837.926,290.662L837.595,290.949L837.261,291.237L836.925,291.524L836.605,291.796L827.495,295.128L742.675,294.858L733.955,291.776L733.776,291.632L733.52,291.422L733.219,291.17L732.878,290.879L732.67,290.698L732.461,290.516L732.24,290.32L732.008,290.112L731.766,289.893L731.513,289.661L731.248,289.416L730.974,289.159L730.69,288.89L730.397,288.609L730.094,288.315L729.784,288.009L729.465,287.692L729.137,287.361L728.802,287.019L728.46,286.664L728.112,286.298L727.756,285.919L727.394,285.528L727.027,285.125L726.653,284.71L726.276,284.283L725.902,283.854L725.699,283.619L725.505,283.392L725.311,283.162L725.114,282.929L724.918,282.693L724.72,282.454L724.521,282.211L724.322,281.966L724.122,281.718L723.92,281.466L723.719,281.212L723.517,280.954L723.314,280.693L723.111,280.43L722.908,280.164L722.704,279.894L722.5,279.622L722.295,279.346L722.09,279.066L721.885,278.785L721.68,278.501L721.475,278.213L721.269,277.922L721.064,277.628L720.859,277.331L720.654,277.031L720.449,276.728L720.244,276.422L720.039,276.113L719.835,275.8L719.631,275.485L719.428,275.166L719.225,274.845L719.022,274.521L718.82,274.193L718.618,273.862L718.418,273.529L718.218,273.192L718.019,272.852L717.82,272.509L717.622,272.163L717.426,271.813L717.231,271.462L717.036,271.107L716.842,270.748L716.65,270.386L716.459,270.022L716.269,269.654L716.081,269.283L715.894,268.91L715.708,268.533L715.524,268.152L715.341,267.77L715.16,267.383L714.98,266.993L714.803,266.601L714.628,266.206L714.454,265.808L714.282,265.406L714.112,265.001L713.944,264.593L713.778,264.182L713.614,263.769L713.453,263.352L713.293,262.93L713.137,262.508L712.983,262.082L712.831,261.653L712.682,261.22L712.535,260.785L712.391,260.346L712.25,259.905L712.112,259.461L711.976,259.013L711.843,258.562L711.714,258.11L711.587,257.653L711.464,257.194L711.344,256.732L711.227,256.268L711.114,255.799L711.004,255.327L710.898,254.855L710.795,254.378L710.695,253.898L710.6,253.416L710.508,252.931L710.42,252.444L710.336,251.953L710.256,251.46L710.18,250.964L710.108,250.466L710.04,249.965L709.977,249.46L709.918,248.954L709.863,248.446L709.812,247.935L709.766,247.421L709.725,246.904L709.689,246.386L709.657,245.865L709.629,245.342L709.607,244.815L709.589,244.288L709.577,243.758L709.57,243.243L709.568,242.959L709.567,242.691L709.568,242.423L709.57,242.154L709.573,241.886L709.577,241.615L709.583,241.347L709.59,241.076L709.599,240.804L709.609,240.533L709.62,240.262L709.632,239.989L709.646,239.715L709.662,239.442L709.678,239.169L709.696,238.894L709.715,238.619L709.736,238.344L709.758,238.069L709.782,237.793L709.807,237.516L709.833,237.239L709.861,236.961L709.89,236.684L709.92,236.407L709.952,236.129L709.986,235.848L710.021,235.568L710.057,235.29L710.094,235.011L710.134,234.729L710.174,234.449L710.216,234.169L710.26,233.885L710.305,233.604L710.351,233.323L710.4,233.04L710.449,232.757L710.5,232.475L710.553,232.191L710.607,231.907L710.662,231.624L710.719,231.34L710.778,231.054L710.838,230.769L710.9,230.485L710.963,230.199L711.027,229.915L711.093,229.629L711.161,229.342L711.231,229.055L711.302,228.768L711.374,228.483L711.448,228.196L711.524,227.908L711.601,227.62L711.679,227.332L711.76,227.045L711.841,226.757L711.924,226.47L712.01,226.18L712.096,225.891L712.185,225.603L712.274,225.314L712.366,225.025L712.459,224.735L712.553,224.446L712.649,224.155L712.747,223.866L712.846,223.576L712.947,223.286L713.05,222.996L713.154,222.707L713.26,222.416L713.367,222.125L713.476,221.833L713.587,221.543L713.699,221.253L713.814,220.96L713.929,220.67L714.046,220.38L714.165,220.088L714.285,219.796L714.408,219.504L714.531,219.213L714.657,218.921L714.784,218.63L714.912,218.339L715.043,218.046L715.175,217.753L715.309,217.462L715.444,217.171L715.581,216.879L715.72,216.586L715.86,216.294L716.002,216.003L716.146,215.71L716.291,215.417L716.438,215.125L716.587,214.833L716.737,214.541L716.889,214.248L717.043,213.955L717.199,213.663L717.356,213.371L717.514,213.079L717.675,212.785L717.837,212.493L718.001,212.201L718.167,211.909L718.334,211.616L718.503,211.324L718.674,211.031L718.847,210.738L719.02,210.446L719.196,210.154L719.373,209.862L719.553,209.569L719.734,209.276L719.917,208.984L720.101,208.691L720.287,208.399L720.475,208.107L720.664,207.815L720.856,207.523L721.049,207.23L721.244,206.937L721.44,206.646L721.638,206.353L721.838,206.061L722.04,205.769L722.244,205.476L722.449,205.185L722.656,204.893L722.865,204.6L723.075,204.308L723.287,204.017L723.501,203.725L723.717,203.432L723.935,203.141L724.154,202.849L724.375,202.557L724.598,202.265L724.822,201.973L725.049,201.681L725.277,201.39L725.507,201.099L725.739,200.807L725.973,200.515L726.208,200.224L726.445,199.932L726.684,199.64L726.925,199.349L727.167,199.058L727.412,198.766L727.658,198.475L727.906,198.184L728.156,197.892L728.407,197.601L728.661,197.31L728.916,197.019L729.173,196.728L729.432,196.437L729.693,196.146L729.956,195.855L730.22,195.564L730.486,195.273L730.738,195L741.104,190.49L827.569,190.939ZM740.796,204.745L740.563,204.999L740.332,205.254L740.102,205.508L739.875,205.761L739.649,206.015L739.426,206.268L739.204,206.521L738.984,206.774L738.765,207.027L738.549,207.279L738.334,207.531L738.122,207.783L737.911,208.035L737.701,208.286L737.494,208.537L737.288,208.788L737.085,209.038L736.883,209.288L736.682,209.538L736.484,209.788L736.287,210.037L736.092,210.287L735.899,210.536L735.708,210.784L735.518,211.033L735.33,211.281L735.144,211.529L734.959,211.776L734.776,212.023L734.595,212.27L734.416,212.517L734.238,212.764L734.062,213.01L733.888,213.256L733.716,213.501L733.545,213.747L733.375,213.992L733.208,214.237L733.042,214.481L732.878,214.726L732.715,214.969L732.554,215.213L732.395,215.457L732.237,215.7L732.081,215.942L731.927,216.185L731.774,216.427L731.623,216.669L731.473,216.911L731.326,217.152L731.179,217.393L731.034,217.634L730.891,217.874L730.75,218.115L730.61,218.354L730.471,218.594L730.334,218.833L730.199,219.072L730.065,219.311L729.933,219.549L729.802,219.787L729.673,220.025L729.546,220.263L729.42,220.5L729.295,220.736L729.172,220.973L729.051,221.209L728.931,221.445L728.812,221.681L728.695,221.916L728.579,222.151L728.465,222.386L728.353,222.62L728.242,222.854L728.132,223.088L728.024,223.321L727.917,223.554L727.812,223.787L727.708,224.019L727.606,224.251L727.505,224.483L727.405,224.715L727.307,224.946L727.21,225.176L727.115,225.407L727.021,225.637L726.929,225.867L726.838,226.096L726.748,226.325L726.659,226.554L726.573,226.783L726.487,227.011L726.403,227.239L726.32,227.466L726.238,227.693L726.158,227.92L726.079,228.146L726.002,228.373L725.926,228.598L725.851,228.824L725.777,229.049L725.705,229.274L725.634,229.498L725.565,229.722L725.497,229.946L725.43,230.169L725.364,230.392L725.299,230.615L725.236,230.837L725.174,231.059L725.114,231.28L725.055,231.502L724.996,231.723L724.94,231.943L724.884,232.163L724.83,232.383L724.777,232.602L724.725,232.822L724.674,233.04L724.625,233.259L724.576,233.477L724.529,233.694L724.483,233.911L724.439,234.128L724.395,234.345L724.353,234.561L724.312,234.777L724.272,234.992L724.233,235.207L724.196,235.422L724.159,235.636L724.124,235.85L724.09,236.064L724.057,236.277L724.025,236.49L723.994,236.702L723.964,236.914L723.936,237.126L723.908,237.337L723.882,237.548L723.857,237.758L723.833,237.969L723.81,238.178L723.788,238.388L723.767,238.597L723.747,238.805L723.728,239.013L723.711,239.221L723.694,239.429L723.679,239.636L723.664,239.842L723.651,240.048L723.638,240.254L723.627,240.46L723.616,240.665L723.607,240.869L723.598,241.073L723.591,241.277L723.585,241.481L723.579,241.684L723.575,241.886L723.571,242.089L723.569,242.29L723.568,242.492L723.567,242.693L723.568,242.893L723.569,243.094L723.575,243.493L723.584,243.89L723.597,244.286L723.614,244.68L723.634,245.073L723.658,245.463L723.686,245.853L723.717,246.24L723.751,246.626L723.789,247.01L723.83,247.392L723.875,247.772L723.922,248.151L723.973,248.528L724.028,248.904L724.085,249.277L724.145,249.649L724.209,250.019L724.275,250.387L724.344,250.754L724.417,251.118L724.492,251.481L724.57,251.842L724.65,252.201L724.734,252.559L724.82,252.914L724.909,253.268L725,253.619L725.094,253.969L725.191,254.317L725.289,254.664L725.391,255.008L725.494,255.35L725.601,255.691L725.709,256.029L725.819,256.366L725.932,256.701L726.047,257.034L726.164,257.364L726.283,257.693L726.404,258.02L726.527,258.345L726.652,258.668L726.779,258.989L726.908,259.308L727.039,259.625L727.171,259.94L727.305,260.253L727.44,260.564L727.578,260.873L727.717,261.18L727.857,261.485L727.999,261.788L728.142,262.088L728.287,262.387L728.433,262.684L728.58,262.978L728.729,263.27L728.879,263.561L729.03,263.849L729.182,264.135L729.336,264.419L729.49,264.701L729.645,264.98L729.801,265.258L729.959,265.533L730.117,265.807L730.276,266.078L730.435,266.346L730.596,266.613L730.757,266.877L730.918,267.14L731.081,267.4L731.244,267.658L731.407,267.913L731.571,268.166L731.735,268.418L731.9,268.666L732.065,268.913L732.23,269.157L732.395,269.399L732.561,269.639L732.727,269.876L732.893,270.112L733.059,270.344L733.225,270.575L733.391,270.803L733.557,271.029L733.723,271.253L733.889,271.474L734.054,271.692L734.219,271.909L734.384,272.123L734.549,272.335L734.713,272.544L734.877,272.751L735.041,272.955L735.203,273.158L735.366,273.357L735.528,273.554L735.689,273.749L735.849,273.942L736.009,274.132L736.168,274.319L736.326,274.504L736.483,274.686L736.794,275.044L737.102,275.392L737.405,275.729L737.704,276.056L737.997,276.374L738.285,276.68L738.568,276.977L738.844,277.263L739.114,277.539L739.377,277.804L739.632,278.059L739.88,278.303L740.121,278.536L740.353,278.759L740.576,278.971L740.79,279.172L740.995,279.361L741.191,279.54L741.376,279.708L741.551,279.865L741.715,280.01L741.869,280.144L742.01,280.267L742.258,280.479L742.455,280.644L742.6,280.763L742.719,280.858L827.54,281.128L827.842,280.871L828.142,280.614L828.439,280.358L828.735,280.102L829.028,279.846L829.318,279.59L829.606,279.335L829.892,279.08L830.176,278.825L830.457,278.571L830.736,278.317L831.013,278.063L831.287,277.809L831.559,277.556L831.829,277.303L832.097,277.05L832.362,276.797L832.625,276.545L832.886,276.293L833.145,276.041L833.401,275.79L833.655,275.539L833.907,275.288L834.157,275.037L834.404,274.787L834.65,274.537L834.893,274.287L835.134,274.038L835.372,273.789L835.609,273.54L835.843,273.291L836.075,273.043L836.306,272.795L836.534,272.547L836.759,272.3L836.983,272.053L837.205,271.806L837.424,271.56L837.641,271.313L837.857,271.068L838.07,270.822L838.281,270.577L838.49,270.332L838.697,270.087L838.902,269.843L839.104,269.599L839.305,269.355L839.504,269.111L839.7,268.868L839.895,268.626L840.088,268.383L840.278,268.141L840.467,267.899L840.653,267.657L840.838,267.416L841.02,267.175L841.201,266.935L841.38,266.694L841.556,266.454L841.731,266.215L841.904,265.975L842.074,265.736L842.243,265.497L842.41,265.259L842.575,265.021L842.738,264.783L842.899,264.546L843.058,264.309L843.216,264.072L843.371,263.836L843.525,263.6L843.676,263.364L843.826,263.128L843.974,262.893L844.12,262.658L844.264,262.424L844.407,262.19L844.547,261.956L844.686,261.723L844.823,261.49L844.958,261.257L845.091,261.024L845.223,260.792L845.352,260.561L845.48,260.329L845.606,260.098L845.731,259.867L845.853,259.637L845.974,259.407L846.093,259.177L846.21,258.948L846.326,258.719L846.44,258.491L846.552,258.262L846.662,258.034L846.771,257.807L846.878,257.58L846.983,257.353L847.087,257.126L847.189,256.9L847.289,256.674L847.387,256.449L847.484,256.224L847.58,255.999L847.673,255.775L847.765,255.551L847.855,255.327L847.944,255.104L848.031,254.881L848.116,254.658L848.2,254.436L848.283,254.214L848.363,253.993L848.442,253.772L848.52,253.551L848.596,253.331L848.67,253.111L848.743,252.891L848.814,252.672L848.884,252.453L848.952,252.235L849.018,252.017L849.083,251.799L849.147,251.582L849.209,251.365L849.269,251.148L849.329,250.932L849.386,250.716L849.442,250.501L849.497,250.286L849.55,250.071L849.602,249.857L849.652,249.643L849.701,249.43L849.748,249.217L849.794,249.004L849.838,248.792L849.881,248.58L849.923,248.368L849.963,248.157L850.002,247.946L850.039,247.736L850.075,247.526L850.11,247.316L850.143,247.107L850.175,246.898L850.206,246.69L850.235,246.482L850.263,246.275L850.29,246.067L850.315,245.861L850.339,245.654L850.361,245.448L850.383,245.243L850.402,245.038L850.421,244.833L850.439,244.629L850.455,244.425L850.469,244.221L850.483,244.018L850.495,243.816L850.506,243.613L850.516,243.412L850.525,243.21L850.532,243.009L850.538,242.809L850.543,242.608L850.547,242.409L850.549,242.209L850.551,242.01L850.551,241.812L850.55,241.614L850.547,241.416L850.544,241.219L850.539,241.022L850.533,240.826L850.527,240.63L850.518,240.435L850.509,240.239L850.499,240.045L850.488,239.851L850.475,239.657L850.461,239.464L850.447,239.271L850.431,239.078L850.414,238.886L850.396,238.695L850.377,238.503L850.357,238.313L850.335,238.122L850.313,237.932L850.29,237.743L850.265,237.554L850.24,237.366L850.214,237.178L850.186,236.99L850.158,236.803L850.128,236.616L850.098,236.43L850.066,236.244L850.034,236.059L850.001,235.874L849.966,235.689L849.931,235.505L849.895,235.322L849.858,235.138L849.819,234.956L849.78,234.774L849.74,234.592L849.699,234.411L849.658,234.23L849.615,234.049L849.571,233.869L849.527,233.69L849.481,233.511L849.435,233.332L849.388,233.154L849.34,232.977L849.241,232.623L849.139,232.271L849.034,231.921L848.925,231.573L848.813,231.227L848.699,230.882L848.581,230.54L848.459,230.199L848.335,229.861L848.208,229.524L848.079,229.19L847.946,228.857L847.81,228.526L847.672,228.197L847.532,227.87L847.388,227.545L847.242,227.223L847.094,226.902L846.943,226.583L846.79,226.266L846.634,225.951L846.477,225.638L846.317,225.327L846.155,225.019L845.99,224.712L845.824,224.407L845.656,224.104L845.486,223.804L845.314,223.505L845.14,223.209L844.964,222.915L844.787,222.622L844.608,222.332L844.427,222.044L844.245,221.758L844.062,221.475L843.877,221.193L843.69,220.914L843.503,220.636L843.314,220.361L843.124,220.088L842.932,219.817L842.74,219.549L842.547,219.282L842.352,219.018L842.157,218.756L841.961,218.496L841.764,218.238L841.566,217.983L841.367,217.73L841.168,217.479L840.969,217.23L840.768,216.984L840.568,216.739L840.367,216.497L840.165,216.258L839.963,216.02L839.761,215.785L839.559,215.553L839.356,215.322L839.154,215.094L838.951,214.868L838.749,214.645L838.546,214.423L838.344,214.205L838.142,213.988L837.94,213.774L837.738,213.562L837.537,213.353L837.336,213.146L837.136,212.941L836.936,212.739L836.737,212.539L836.538,212.342L836.34,212.147L836.143,211.954L835.946,211.764L835.751,211.576L835.556,211.391L835.362,211.208L835.17,211.028L834.978,210.85L834.788,210.674L834.598,210.502L834.41,210.331L834.224,210.163L834.038,209.998L833.672,209.674L833.311,209.361L832.957,209.058L832.61,208.765L832.271,208.483L831.939,208.211L831.616,207.949L831.301,207.698L830.996,207.457L830.7,207.227L830.415,207.007L830.14,206.799L829.876,206.601L829.623,206.413L829.382,206.237L829.154,206.072L828.938,205.917L828.735,205.774L828.546,205.642L828.372,205.521L828.211,205.411L828.066,205.313L827.822,205.15L827.644,205.033L827.534,204.963L827.496,204.939L741.031,204.49L740.796,204.745Z"/>
    </g>
</svg>
