<?xml version="1.0" encoding="UTF-8" standalone="no"?>
<!DOCTYPE svg PUBLIC "-//W3C//DTD SVG 1.1//EN" "http://www.w3.org/Graphics/SVG/1.1/DTD/svg11.dtd">
<svg class='klogo' width="100%" height="100%" viewBox="0 0 300 313" version="1.1" xmlns="http://www.w3.org/2000/svg" xmlns:xlink="http://www.w3.org/1999/xlink" xml:space="preserve" xmlns:serif="http://www.serif.com/" style="fill-rule:evenodd;clip-rule:evenodd;stroke-linecap:round;stroke-linejoin:round;stroke-miterlimit:1.5;">
    <g transform="matrix(0.562125,0,0,0.560975,-190.757,-50.239)">
        <path d="M605.636,130.808C605.636,130.808 425.291,363.438 605.74,619.784C605.74,619.784 784.616,408.193 605.636,130.808Z" style="fill:none;stroke:black;stroke-width:16.03px;"/>
        <path d="M606.293,310.923C606.293,310.923 574.702,312.281 574.192,376.717C573.682,441.153 605.004,444.752 605.004,444.752C605.004,444.752 632.787,440.603 635.833,376.728C638.879,312.852 606.293,310.923 606.293,310.923Z" style="fill:none;stroke:black;stroke-width:16.03px;"/>
        <path d="M483.272,377.159L727.18,377.572" style="fill:none;stroke:black;stroke-width:16.03px;"/>
        <path d="M411.483,353.754L411.739,397.838L464.009,397.626C464.009,397.626 481.343,396.379 483.563,376.189C485.783,355.999 465.679,353.703 465.679,353.703L411.483,353.754Z" style="fill:none;stroke:black;stroke-width:16.03px;"/>
        <path d="M798.071,354.598L799.213,398.254L743.933,397.809C743.933,397.809 729.335,400.323 727.597,376.968C725.858,353.614 742.841,356.178 742.841,355.104C742.841,354.03 798.071,354.598 798.071,354.598Z" style="fill:none;stroke:black;stroke-width:16.03px;"/>
    </g>
</svg>
